<svg width="300" height="300" viewBox="0 0 300 300" fill="none" xmlns="http://www.w3.org/2000/svg">
<g id="Start_button">
<circle id="Ellipse 4" cx="150" cy="150" r="150" fill="#D9D9D9"/>
<path id="Polygon 1" d="M253 150L98.5 240.067V59.9334L253 150Z" fill="#476EAE"/>
<path id="Subtract" d="M150 15C224.558 15 285 75.4416 285 150C285 224.558 224.558 285 150 285C75.4416 285 15 224.558 15 150C15 75.4416 75.4416 15 150 15ZM150 25.7998C81.4063 25.7998 25.7998 81.4063 25.7998 150C25.7998 218.594 81.4063 274.2 150 274.2C218.594 274.2 274.2 218.594 274.2 150C274.2 81.4062 218.594 25.7998 150 25.7998Z" fill="#243C64"/>
</g>
</svg>
