<svg width="339" height="339" viewBox="0 0 339 339" fill="none" xmlns="http://www.w3.org/2000/svg">
<g id="Start_button">
<circle id="Ellipse 4" cx="169.417" cy="169.416" r="150" fill="#A6A6A6"/>
<g id="Mask group">
<mask id="mask0_49_4" style="mask-type:alpha" maskUnits="userSpaceOnUse" x="19" y="19" width="301" height="301">
<circle id="Ellipse 5" cx="169.416" cy="169.416" r="150" transform="rotate(8 169.416 169.416)" fill="#999999"/>
</mask>
<g mask="url(#mask0_49_4)">
<rect id="Rectangle 13" x="342.902" y="-7.15771" width="42.4693" height="588" transform="rotate(68 342.902 -7.15771)" fill="#D9D9D9"/>
<rect id="Rectangle 14" x="360.684" y="38.764" width="21.207" height="588" transform="rotate(68 360.684 38.764)" fill="#D9D9D9"/>
</g>
</g>
<path id="Polygon 1" d="M259.417 169.416L124.417 250.823V88.0099L259.417 169.416Z" fill="#05339C"/>
<path id="Subtract" d="M169.417 34.4163C243.975 34.4163 304.417 94.8578 304.417 169.416C304.417 243.975 243.975 304.416 169.417 304.416C94.8586 304.416 34.417 243.975 34.417 169.416C34.417 94.8578 94.8586 34.4163 169.417 34.4163ZM169.417 45.2161C100.823 45.2161 45.2168 100.823 45.2168 169.416C45.2168 238.01 100.823 293.616 169.417 293.616C238.011 293.616 293.617 238.01 293.617 169.416C293.617 100.822 238.011 45.2161 169.417 45.2161Z" fill="#05339C"/>
</g>
</svg>
