<svg width="518" height="796" viewBox="0 0 518 796" fill="none" xmlns="http://www.w3.org/2000/svg">
<g id="Tulip">
<rect id="Tangkai" x="232.119" y="314" width="54" height="482" fill="#3D7B19"/>
<g id="Kelopak">
<path id="Kelopak_kiri" d="M90.9436 48.4859C163.22 52.8358 231.581 93.5915 268.063 162.204C304.545 230.816 300.105 310.28 263.295 372.632C191.019 368.282 122.658 327.527 86.176 258.915C49.6942 190.303 54.1336 110.838 90.9436 48.4859Z" fill="#CE4848"/>
<path id="Kelopak_kanan" d="M426.415 48.3556C354.139 52.7055 285.777 93.4612 249.295 162.074C212.813 230.686 217.253 310.15 254.063 372.502C326.339 368.152 394.7 327.397 431.182 258.785C467.664 190.172 463.225 110.708 426.415 48.3556Z" fill="#E36464"/>
<path id="Kelopak_tengah" d="M259.119 5C320.893 42.7723 362.119 110.851 362.119 188.56C362.119 266.268 320.893 334.346 259.119 372.118C197.346 334.346 156.119 266.268 156.119 188.56C156.119 110.851 197.346 42.7723 259.119 5Z" fill="#C76767"/>
</g>
<path id="Daun_1" d="M342.825 434.558C346.054 454.918 338.644 477.426 321.306 493.594C303.968 509.762 280.999 515.583 260.914 510.942C257.685 490.582 265.094 468.075 282.432 451.907C299.771 435.739 322.74 429.917 342.825 434.558Z" fill="#0C4C07"/>
<path id="Daun_0" d="M170.606 556.011C168.09 576.471 176.28 598.706 194.172 614.259C212.064 629.813 235.222 634.828 255.133 629.489C257.649 609.029 249.46 586.794 231.568 571.241C213.676 555.688 190.517 550.671 170.606 556.011Z" fill="#0C4C07"/>
</g>
</svg>
